:SAMPLES-PER-SECOND 30
:FULLY-SPECIFIED
:DEGREES
97
root  -57.1211 36.857 4.25188 -38.9575 -81.8054 29.9914
RightUpLeg  -26.5233 -18.7157 -10.516
RightLeg  32.4348 6.32705 4.0748
RightFoot  3.89903 -0.131149 1.19666
RightToes  4.01633e-009 0 -3.6325e-017
Spine  63.5334 -9.60345 10.3308
Spine1  9.36326 -4.78346 3.2129
HEad  -22.996 -12.6477 -1.68669
LeftShoulder1  1.95727 -5.13018 -15.9003
LeftArm  -3.51611 -54.1472 -60.6351
LeftForeArm  21.6927 -14.3384 -3.84746
LeftHand  -0.0579636 2.24539 1.55941
RightShoulder  0.812146 0.878004 11.4432
RightArm  4.76095 49.0306 50.1609
RightForeArm  6.06306 -3.24079 4.63184
RightHand  -0.418653 2.47553 -6.37393
LeftUpLeg  -27.6432 -1.13459 -3.99111
LeftLeg  62.1038 -0.886367 -1.26849
LeftFoot  2.86824 0.263372 -2.27055
LeftToes  -1.95724e-009 9.62483e-011 3.51777e-011
98
root  -57.5796 36.8088 4.05141 -28.9621 -80.1425 20.3042
RightUpLeg  -26.6796 -22.849 -10.0544
RightLeg  34.6182 7.53113 5.2858
RightFoot  2.25126 -0.0172604 0.282219
RightToes  4.01633e-009 0 -3.6325e-017
Spine  66.7349 -12.617 12.3083
Spine1  8.90728 -6.04109 2.80831
HEad  -26.9556 -11.9877 -1.01949
LeftShoulder1  1.93239 -5.71652 -14.0499
LeftArm  -4.74873 -58.5702 -59.6011
LeftForeArm  20.2283 -13.1413 -3.41214
LeftHand  -0.105952 1.34748 2.80988
RightShoulder  0.946068 2.17062 9.33979
RightArm  2.0143 55.6773 45.9668
RightForeArm  5.0178 -5.93823 4.25911
RightHand  -0.340746 2.40839 -5.27644
LeftUpLeg  -30.294 -1.90556 -4.19697
LeftLeg  60.4416 -0.151384 0.295505
LeftFoot  2.34783 -0.120235 0.850214
LeftToes  -1.95724e-009 9.62483e-011 3.51777e-011
99
root  -58.1046 36.9519 3.69216 -27.7962 -78.7992 19.888
RightUpLeg  -26.7532 -23.7596 -10.152
RightLeg  35.5567 7.1169 5.1716
RightFoot  1.04651 0.0448145 -0.348763
RightToes  4.01633e-009 0 -3.6325e-017
Spine  70.8658 -14.4078 12.8236
Spine1  7.19661 -6.57777 2.34209
HEad  -29.453 -12.0804 -0.0487309
LeftShoulder1  1.91844 -6.75477 -11.5551
LeftArm  -7.31291 -62.0493 -57.3352
LeftForeArm  18.623 -12.5688 -2.57839
LeftHand  -0.0466384 2.20343 1.29727
RightShoulder  0.945169 2.96677 6.99156
RightArm  -2.59994 60.1012 40.7062
RightForeArm  2.45489 -6.25779 3.56446
RightHand  -0.368327 2.22211 -5.81005
LeftUpLeg  -30.989 -1.96192 -4.69575
LeftLeg  53.0864 -0.728852 -0.576634
LeftFoot  -0.933302 0.0745057 -0.756213
LeftToes  -1.95724e-009 9.62483e-011 3.51777e-011
100
root  -58.6629 37.1039 3.39054 -26.4958 -77.9908 20.1352
RightUpLeg  -27.7645 -24.5262 -9.64246
RightLeg  36.2441 6.82676 5.07613
RightFoot  0.197157 0.132675 -1.29568
RightToes  4.01633e-009 0 -3.6325e-017
Spine  74.2238 -15.673 13.3518
Spine1  5.61729 -6.77546 2.13461
HEad  -30.8909 -12.5564 0.525547
LeftShoulder1  1.8556 -7.80747 -8.98428
LeftArm  -10.1705 -65.8029 -53.8027
LeftForeArm  15.5202 -11.4211 -1.83681
LeftHand  -0.083425 1.34273 2.23737
RightShoulder  0.895313 3.51527 4.93159
RightArm  -9.60953 63.1194 32.6478
RightForeArm  -1.53947 -4.62368 2.77544
RightHand  -0.384768 2.04834 -6.18292
LeftUpLeg  -30.858 -2.91773 -4.87955
LeftLeg  42.4203 -2.01366 -1.5251
LeftFoot  -2.60994 0.225056 -2.5768
LeftToes  -1.95724e-009 9.62483e-011 3.51777e-011
101
root  -59.2214 37.124 3.18538 -24.8256 -78.1884 20.6333
RightUpLeg  -30.1122 -24.1735 -8.40317
RightLeg  37.4868 6.22422 4.82529
RightFoot  -0.781868 0.157964 -1.7665
RightToes  4.01633e-009 0 -3.6325e-017
Spine  76.7785 -16.3356 13.7201
Spine1  4.22974 -6.41036 1.56945
HEad  -32.4117 -12.5332 0.507411
LeftShoulder1  1.76675 -8.80807 -6.69617
LeftArm  -14.9917 -68.3128 -48.929
LeftForeArm  13.9889 -11.429 -0.823866
LeftHand  -0.0767342 1.33126 2.00608
RightShoulder  0.831086 4.23844 2.60283
RightArm  -18.1192 64.6125 23.1528
RightForeArm  -4.53918 -2.64704 1.85286
RightHand  -0.400823 2.9256 -5.83756
LeftUpLeg  -30.9211 -4.03404 -4.38405
LeftLeg  32.1244 -4.56075 -2.76327
LeftFoot  -0.196246 0.289881 -3.66344
LeftToes  -1.95724e-009 9.62483e-011 3.51777e-011
